<?xml version="1.0" encoding="UTF-8" standalone="no"?>
<!-- Created with Inkscape (http://www.inkscape.org/) -->

<svg
   xmlns:dc="http://purl.org/dc/elements/1.1/"
   xmlns:cc="http://creativecommons.org/ns#"
   xmlns:rdf="http://www.w3.org/1999/02/22-rdf-syntax-ns#"
   xmlns:svg="http://www.w3.org/2000/svg"
   xmlns="http://www.w3.org/2000/svg"
   xmlns:sodipodi="http://sodipodi.sourceforge.net/DTD/sodipodi-0.dtd"
   xmlns:inkscape="http://www.inkscape.org/namespaces/inkscape"
   sodipodi:docname="icon2.svg"
   inkscape:version="0.91 r13725"
   version="1.1"
   id="svg2"
   viewBox="0 0 192.00001 192.00001"
   height="192"
   width="192"
   inkscape:export-filename="/home/lidavidm/ic_launcher.png"
   inkscape:export-xdpi="240"
   inkscape:export-ydpi="240">
  <sodipodi:namedview
     inkscape:window-maximized="1"
     inkscape:window-y="22"
     inkscape:window-x="0"
     inkscape:window-height="1054"
     inkscape:window-width="1916"
     guidetolerance="10000"
     objecttolerance="10000"
     units="px"
     showgrid="true"
     inkscape:current-layer="layer1"
     inkscape:document-units="px"
     inkscape:cy="31.485002"
     inkscape:cx="-211.53406"
     inkscape:zoom="0.98994949"
     inkscape:pageshadow="2"
     inkscape:pageopacity="0.0"
     borderopacity="1.0"
     bordercolor="#666666"
     pagecolor="#ffffff"
     id="base">
    <inkscape:grid
       empspacing="4"
       snapvisiblegridlinesonly="true"
       id="grid4136"
       type="xygrid" />
  </sodipodi:namedview>
  <defs
     id="defs4">
    <filter
       style="color-interpolation-filters:sRGB;"
       inkscape:label="Drop Shadow"
       id="filter4478">
      <feFlood
         flood-opacity="0.2"
         flood-color="rgb(239,64,53)"
         result="flood"
         id="feFlood4480" />
      <feComposite
         in="flood"
         in2="SourceGraphic"
         operator="in"
         result="composite1"
         id="feComposite4482" />
      <feGaussianBlur
         in="composite1"
         stdDeviation="6"
         result="blur"
         id="feGaussianBlur4484" />
      <feOffset
         dx="0"
         dy="6"
         result="offset"
         id="feOffset4486" />
      <feComposite
         in="SourceGraphic"
         in2="offset"
         operator="over"
         result="composite2"
         id="feComposite4488" />
    </filter>
    <clipPath
       clipPathUnits="userSpaceOnUse"
       id="clipPath5229">
      <circle
         clip-path="none"
         r="88.071434"
         style="fill:#000000;fill-opacity:0.05882353;stroke:none;stroke-width:2;stroke-miterlimit:4;stroke-dasharray:none;stroke-opacity:0.11764706"
         id="circle5231"
         cx="96.000008"
         cy="956.36224" />
    </clipPath>
    <clipPath
       clipPathUnits="userSpaceOnUse"
       id="clipPath5233">
      <g
         id="g5235"
         style="font-style:normal;font-variant:normal;font-weight:normal;font-stretch:normal;font-size:116.6316452px;line-height:125%;font-family:'Noto Serif';-inkscape-font-specification:'Noto Serif';letter-spacing:0px;word-spacing:0px;fill:#000000;fill-opacity:0.11764706;stroke:none;stroke-width:1px;stroke-linecap:butt;stroke-linejoin:miter;stroke-opacity:1"
         transform="translate(-4.9460373,20.363955)">
        <path
           id="path5237"
           d="m 95.478935,967.60499 0,-36.95993 70.710675,70.71064 0,36.96 z"
           inkscape:connector-curvature="0"
           style="fill:#000000;fill-opacity:0.11764706" />
        <path
           id="path5239"
           d="m 85.911495,922.67219 -0.341694,0 70.710679,70.71068 0.34169,0 z"
           inkscape:connector-curvature="0"
           style="fill:#000000;fill-opacity:0.11764706" />
        <path
           id="path5241"
           d="m 85.569801,922.67219 0,-4.89761 70.710679,70.71068 0,4.89761 z"
           inkscape:connector-curvature="0"
           style="fill:#000000;fill-opacity:0.11764706" />
        <path
           id="path5243"
           d="m 85.569801,917.77458 20.843349,0 70.71068,70.71068 -20.84335,0 z"
           inkscape:connector-curvature="0"
           style="fill:#000000;fill-opacity:0.11764706" />
        <path
           id="path5245"
           d="m 106.41315,917.77458 0,49.26092 70.71068,70.7107 0,-49.26094 z"
           inkscape:connector-curvature="0"
           style="fill:#000000;fill-opacity:0.11764706" />
        <path
           id="path5247"
           d="m 115.98059,975.40701 1.53763,0 70.71068,70.71069 -1.53763,0 z"
           inkscape:connector-curvature="0"
           style="fill:#000000;fill-opacity:0.11764706" />
        <path
           id="path5249"
           d="m 117.51822,975.40701 0,4.89762 70.71068,70.71067 0,-4.8976 z"
           inkscape:connector-curvature="0"
           style="fill:#000000;fill-opacity:0.11764706" />
        <path
           id="path5251"
           d="m 117.51822,980.30463 -33.144349,0 70.710679,70.71067 33.14435,0 z"
           inkscape:connector-curvature="0"
           style="fill:#000000;fill-opacity:0.11764706" />
        <path
           id="path5253"
           d="m 84.373871,980.30463 0,-4.89762 70.710679,70.71069 0,4.8976 z"
           inkscape:connector-curvature="0"
           style="fill:#000000;fill-opacity:0.11764706" />
        <path
           id="path5255"
           d="m 84.373871,975.40701 1.537624,0 70.710675,70.71069 -1.53762,0 z"
           inkscape:connector-curvature="0"
           style="fill:#000000;fill-opacity:0.11764706" />
      </g>
    </clipPath>
  </defs>
  <metadata
     id="metadata7">
    <rdf:RDF>
      <cc:Work
         rdf:about="">
        <dc:format>image/svg+xml</dc:format>
        <dc:type
           rdf:resource="http://purl.org/dc/dcmitype/StillImage" />
        <dc:title />
      </cc:Work>
    </rdf:RDF>
  </metadata>
  <g
     inkscape:groupmode="layer"
     id="layer2"
     inkscape:label="Layer 2"
     style="display:inline">
    <circle
       transform="translate(0,-860.36217)"
       style="display:inline;fill:#ffffff;fill-opacity:1;stroke:#000000;stroke-width:2;stroke-miterlimit:4;stroke-dasharray:none;stroke-opacity:0.11764706;filter:url(#filter4478);image-rendering:auto"
       id="circle4426"
       cx="96.000008"
       cy="956.36224"
       r="88.000008" />
  </g>
  <g
     transform="translate(0,-860.36222)"
     id="layer1"
     inkscape:groupmode="layer"
     inkscape:label="Layer 1"
     style="display:inline">
    <path
       d="m 158.22541,1018.5876 a 88.000008,88.000008 0 0 1 -124.450803,0 88.000008,88.000008 0 0 1 -3e-6,-124.45076 88.000008,88.000008 0 0 1 124.450806,0 l -62.225402,62.2254 z"
       sodipodi:end="5.4977871"
       sodipodi:start="0.78539816"
       sodipodi:ry="88.000008"
       sodipodi:rx="88.000008"
       sodipodi:cy="956.36224"
       sodipodi:cx="96.000008"
       sodipodi:type="arc"
       style="fill:#b31b1b;fill-opacity:1;stroke:none;stroke-width:2;stroke-miterlimit:4;stroke-dasharray:none"
       id="circle4159" />
    <path
       id="path4165"
       style="fill:#ffffff;fill-opacity:1;stroke:none;stroke-width:2;stroke-miterlimit:4;stroke-dasharray:none"
       sodipodi:type="arc"
       sodipodi:cx="98.072685"
       sodipodi:cy="956.36224"
       sodipodi:rx="67.072685"
       sodipodi:ry="67.072685"
       sodipodi:start="0.78539816"
       sodipodi:end="5.4977871"
       d="m 145.50024,1003.7898 a 67.072685,67.072685 0 0 1 -94.855105,0 67.072685,67.072685 0 0 1 -2e-6,-94.85511 67.072685,67.072685 0 0 1 94.855097,0 l -47.427545,47.42755 z" />
    <circle
       cy="956.36224"
       cx="96.000008"
       id="path4138"
       style="fill:#000000;fill-opacity:0.05882353;stroke:none;stroke-width:2;stroke-miterlimit:4;stroke-dasharray:none;stroke-opacity:0.11764706"
       r="88.071434"
       clip-path="url(#clipPath5233)" />
    <path
       inkscape:connector-curvature="0"
       style="font-style:normal;font-variant:normal;font-weight:normal;font-stretch:normal;font-size:116.6316452px;line-height:125%;font-family:'Noto Serif';-inkscape-font-specification:'Noto Serif';letter-spacing:0px;word-spacing:0px;fill:#b31b1b;fill-opacity:1;stroke:none;stroke-width:1px;stroke-linecap:butt;stroke-linejoin:miter;stroke-opacity:1"
       d="m 80.965458,995.77097 q 1.936268,0 3.644739,-0.2278 1.76542,-0.28475 3.075248,-1.08203 1.309828,-0.79729 2.050166,-2.33492 0.797287,-1.59457 0.797287,-4.15728 l 0,-36.95993 q 0,-2.56271 -0.797287,-4.10033 -0.740338,-1.59456 -2.050166,-2.44881 -1.309828,-0.85424 -3.075248,-1.13897 -1.708471,-0.28475 -3.644739,-0.28475 l -0.341694,0 0,-4.89761 20.843346,0 0,49.26091 q 0,2.73356 0.74034,4.38508 0.79729,1.65152 2.05016,2.5627 1.30983,0.85424 3.07525,1.13899 1.76542,0.28475 3.70169,0.28475 l 1.53763,0 0,4.89763 -33.144346,0 0,-4.89763 1.537624,0 z"
       id="path4169" />
    <g
       id="g4203"
       style="font-style:normal;font-variant:normal;font-weight:normal;font-stretch:normal;font-size:116.6316452px;line-height:125%;font-family:'Noto Serif';-inkscape-font-specification:'Noto Serif';letter-spacing:0px;word-spacing:0px;fill:#b31b1b;fill-opacity:1;stroke:none;stroke-width:1px;stroke-linecap:butt;stroke-linejoin:miter;stroke-opacity:1" />
    <path
       id="path4192"
       d="m 88.881375,919.23144 q 0,-2.05016 0.512542,-3.41693 0.512541,-1.36678 1.423726,-2.22101 0.911185,-0.85424 2.107115,-1.19593 1.19593,-0.3417 2.619655,-0.3417 1.36678,0 2.56271,0.3417 1.19593,0.34169 2.050157,1.19593 0.91119,0.85423 1.42373,2.22101 0.56949,1.36677 0.56949,3.41693 0,2.05017 -0.56949,3.41696 -0.51254,1.36677 -1.42373,2.22101 -0.854227,0.85423 -2.050157,1.25288 -1.19593,0.34168 -2.56271,0.34168 -1.423725,0 -2.619655,-0.34168 -1.19593,-0.39865 -2.107115,-1.25288 -0.911185,-0.85424 -1.423726,-2.22101 -0.512542,-1.36678 -0.512542,-3.41696 z"
       style="font-style:normal;font-variant:normal;font-weight:normal;font-stretch:normal;font-size:116.6316452px;line-height:125%;font-family:'Noto Serif';-inkscape-font-specification:'Noto Serif';letter-spacing:0px;word-spacing:0px;fill:#b31b1b;fill-opacity:1;stroke:none;stroke-width:1px;stroke-linecap:butt;stroke-linejoin:miter;stroke-opacity:1"
       inkscape:connector-curvature="0" />
    <g
       transform="translate(100.00001,100.00001)"
       style="font-style:normal;font-variant:normal;font-weight:normal;font-stretch:normal;font-size:116.6316452px;line-height:125%;font-family:'Noto Serif';-inkscape-font-specification:'Noto Serif';letter-spacing:0px;word-spacing:0px;fill:#b31b1b;fill-opacity:1;stroke:none;stroke-width:1px;stroke-linecap:butt;stroke-linejoin:miter;stroke-opacity:1"
       id="g4297" />
    <path
       style="font-style:normal;font-variant:normal;font-weight:normal;font-stretch:normal;font-size:116.6316452px;line-height:125%;font-family:'Noto Serif';-inkscape-font-specification:'Noto Serif';letter-spacing:0px;word-spacing:0px;fill:#000000;fill-opacity:0.05882353;stroke:none;stroke-width:1;stroke-linecap:butt;stroke-linejoin:miter;stroke-opacity:1"
       d="m 95.544922,912.05558 c -0.94915,0 -1.823807,0.114 -2.621094,0.3418 -0.797287,0.22779 -1.498012,0.62582 -2.105469,1.19531 -0.607457,0.56949 -1.082134,1.31146 -1.423828,2.22265 -0.341695,0.91119 -0.513672,2.04925 -0.513672,3.41602 0,1.36679 0.171977,2.50678 0.513672,3.41797 3.1e-4,8.2e-4 0.0016,0.001 0.002,0.002 0.08517,0.22689 0.177633,0.44275 0.279297,0.64844 3.7e-4,7.5e-4 0.0016,0.001 0.002,0.002 0.101697,0.20554 0.20995,0.40159 0.328125,0.58594 4.68e-4,7.3e-4 0.0015,10e-4 0.002,0.002 0.118214,0.18422 0.244223,0.35845 0.378907,0.52149 0.0029,0.004 0.0068,0.006 0.0098,0.01 0.132647,0.15969 0.273338,0.30997 0.421875,0.44922 6.65e-4,6.3e-4 0.0013,10e-4 0.002,0.002 0,0 0.002,0.002 0.002,0.002 0.002,0.002 0.0039,0.004 0.0059,0.006 0.0014,0.001 0.0026,0.003 0.0039,0.004 0.0027,0.003 0.0051,0.005 0.0078,0.008 0.0017,0.002 0.0041,0.002 0.0059,0.004 0.0043,0.004 0.0074,0.01 0.01172,0.0137 0.002,0.002 0.0038,0.004 0.0059,0.006 0.0053,0.005 0.01029,0.0106 0.01563,0.0156 0.0027,0.003 0.0051,0.005 0.0078,0.008 0.0066,0.006 0.01286,0.0133 0.01953,0.0195 0.0031,0.003 0.0067,0.005 0.0098,0.008 0.0083,0.008 0.01511,0.0176 0.02344,0.0254 0.0034,0.003 0.0064,0.007 0.0098,0.01 0.0093,0.009 0.01803,0.0186 0.02734,0.0273 0.0037,0.004 0.008,0.006 0.01172,0.01 0.01027,0.01 0.01895,0.0215 0.0293,0.0312 0.0044,0.004 0.0092,0.008 0.01367,0.0117 0.01158,0.0111 0.02152,0.0242 0.0332,0.0352 0.0051,0.005 0.01054,0.009 0.01563,0.0137 0.01287,0.0123 0.02412,0.0269 0.03711,0.0391 0.0055,0.005 0.0121,0.009 0.01758,0.0137 0.01388,0.0133 0.02504,0.0298 0.03906,0.043 0.0058,0.005 0.01179,0.0102 0.01758,0.0156 0.01547,0.0149 0.02927,0.0322 0.04492,0.0469 0.0065,0.006 0.01306,0.0116 0.01953,0.0176 0.01616,0.0156 0.03053,0.0335 0.04687,0.0488 0.0068,0.006 0.01464,0.0112 0.02148,0.0176 0.01775,0.0172 0.03279,0.0378 0.05078,0.0547 0.0075,0.007 0.01591,0.0126 0.02344,0.0195 0.01844,0.0179 0.03404,0.0391 0.05273,0.0566 0.0075,0.007 0.01591,0.0126 0.02344,0.0195 0.02034,0.0198 0.03794,0.0431 0.05859,0.0625 0.0082,0.008 0.01719,0.0139 0.02539,0.0215 0.02103,0.0204 0.03919,0.0444 0.06055,0.0644 0.0088,0.008 0.01848,0.0152 0.02734,0.0234 0.02232,0.0217 0.04176,0.0471 0.06445,0.0684 0.0088,0.008 0.01846,0.0152 0.02734,0.0234 0.0242,0.0237 0.04567,0.0511 0.07031,0.0742 0.0099,0.009 0.02131,0.0162 0.03125,0.0254 0.02448,0.0239 0.04538,0.0528 0.07031,0.0762 0.0099,0.009 0.02131,0.0162 0.03125,0.0254 0.02582,0.0253 0.0479,0.0554 0.07422,0.0801 0.01087,0.0102 0.02227,0.0192 0.0332,0.0293 0.02682,0.0263 0.05076,0.0564 0.07813,0.082 0.01087,0.0102 0.02227,0.0192 0.0332,0.0293 0.02868,0.0283 0.05469,0.0604 0.08398,0.0879 0.01124,0.0105 0.02385,0.0189 0.03516,0.0293 0.02965,0.0293 0.05563,0.0634 0.08594,0.0918 0.01192,0.0112 0.02512,0.0202 0.03711,0.0312 0.03035,0.03 0.05685,0.0646 0.08789,0.0937 0.01054,0.01 0.02261,0.0175 0.0332,0.0273 0.03378,0.0336 0.06302,0.073 0.09766,0.10547 0.01563,0.0147 0.03307,0.0266 0.04883,0.041 0.03035,0.03 0.05685,0.0647 0.08789,0.0937 0.01324,0.0124 0.02769,0.0229 0.04102,0.0352 0.03416,0.034 0.06457,0.0726 0.09961,0.10547 0.01425,0.0134 0.03057,0.0239 0.04492,0.0371 0.03512,0.035 0.06551,0.0756 0.101563,0.10937 0.01428,0.0134 0.03054,0.0239 0.04492,0.0371 0.03685,0.0369 0.06954,0.0797 0.107422,0.11524 0.01499,0.014 0.03177,0.0252 0.04687,0.0391 0.03701,0.037 0.06937,0.0796 0.107421,0.11524 0.01459,0.0137 0.03023,0.0256 0.04492,0.0391 0.03975,0.0399 0.07623,0.0847 0.117188,0.12304 0.0153,0.0144 0.03146,0.0269 0.04687,0.041 0.04037,0.0406 0.07752,0.086 0.119141,0.125 0.01634,0.0153 0.0343,0.0279 0.05078,0.043 0.04078,0.0411 0.07709,0.0875 0.11914,0.12695 0.01702,0.016 0.03557,0.0292 0.05273,0.0449 0.04203,0.0424 0.07966,0.0902 0.123047,0.13086 0.01702,0.016 0.03557,0.0292 0.05273,0.0449 0.04381,0.0444 0.08361,0.0942 0.128906,0.13671 0.01702,0.016 0.03557,0.0292 0.05273,0.0449 0.04506,0.0457 0.08619,0.0969 0.132812,0.14062 0.01837,0.0172 0.0381,0.0319 0.05664,0.0488 0.04515,0.0458 0.08609,0.0968 0.132812,0.14062 0.01869,0.0175 0.03972,0.0316 0.05859,0.0488 0.04671,0.0475 0.08832,0.10111 0.136719,0.14649 0.01802,0.0169 0.03846,0.0303 0.05664,0.0469 0.04909,0.0502 0.09357,0.10653 0.144532,0.1543 0.02009,0.0188 0.0422,0.0342 0.0625,0.0527 0.04857,0.0496 0.09218,0.1051 0.142578,0.15235 0.01937,0.0181 0.04099,0.0329 0.06055,0.0508 0.05093,0.0522 0.09744,0.11051 0.15039,0.16015 0.02076,0.0195 0.04347,0.0356 0.06445,0.0547 0.05104,0.0524 0.09732,0.11041 0.150391,0.16016 0.02009,0.0188 0.0422,0.0342 0.0625,0.0527 0.05339,0.055 0.102587,0.11583 0.158203,0.16797 0.02181,0.0204 0.04631,0.0366 0.06836,0.0566 0.0532,0.0548 0.100838,0.11602 0.15625,0.16797 0.02206,0.0207 0.04605,0.0383 0.06836,0.0586 0.05472,0.0565 0.105042,0.11838 0.162109,0.17188 0.02113,0.0198 0.04505,0.0352 0.06641,0.0547 0.05706,0.0592 0.108347,0.12574 0.167969,0.18164 0.02549,0.0239 0.05425,0.043 0.08008,0.0664 0.05443,0.0562 0.103412,0.11868 0.160157,0.17188 0.02269,0.0213 0.04735,0.0397 0.07031,0.0606 0.05887,0.0613 0.114177,0.12779 0.175781,0.18554 0.02316,0.0217 0.04883,0.0393 0.07227,0.0605 0.05979,0.0623 0.115121,0.13075 0.177734,0.18945 0.02451,0.023 0.05135,0.042 0.07617,0.0645 0.05991,0.0625 0.114989,0.13062 0.177735,0.18945 0.02373,0.0223 0.0502,0.0407 0.07422,0.0625 0.06251,0.0655 0.119938,0.13771 0.185547,0.19922 0.02819,0.0264 0.05929,0.0484 0.08789,0.0742 0.05991,0.0625 0.114988,0.13062 0.177738,0.18945 0.0262,0.0246 0.0554,0.0443 0.082,0.0684 0.0632,0.0664 0.12107,0.1389 0.1875,0.20117 0.0248,0.0233 0.053,0.0417 0.0781,0.0644 0.0661,0.0697 0.12766,0.14568 0.19727,0.21094 0.0269,0.0252 0.0567,0.0457 0.084,0.0703 0.0657,0.0692 0.12622,0.14421 0.19532,0.20899 0.0262,0.0246 0.0554,0.0443 0.082,0.0684 0.0679,0.0719 0.13152,0.14966 0.20312,0.21679 0.0283,0.0265 0.0592,0.0484 0.0879,0.0742 0.0674,0.0713 0.13008,0.1482 0.20117,0.21485 0.0272,0.0255 0.0564,0.0474 0.084,0.0723 0.07,0.0744 0.13701,0.15335 0.21094,0.22266 0.0289,0.0271 0.0605,0.0497 0.0898,0.0762 0.0698,0.0742 0.13523,0.15351 0.20898,0.22266 0.0292,0.0274 0.0621,0.0495 0.0918,0.0762 0.0713,0.076 0.13745,0.15779 0.21289,0.22851 0.03,0.0281 0.0633,0.0508 0.0937,0.0781 0.0722,0.0771 0.14036,0.16076 0.2168,0.23242 0.0289,0.0271 0.0605,0.0497 0.0898,0.0762 0.0741,0.0794 0.14406,0.1646 0.22266,0.23828 0.0319,0.0299 0.0671,0.0549 0.0996,0.084 0.0733,0.0783 0.1431,0.16163 0.2207,0.23437 0.03,0.0281 0.0633,0.0508 0.0937,0.0781 0.0765,0.0823 0.1492,0.16991 0.23047,0.24609 0.032,0.03 0.0671,0.0548 0.0996,0.084 0.0764,0.0821 0.14939,0.17008 0.23047,0.24609 0.0307,0.0287 0.0646,0.0521 0.0957,0.0801 0.0789,0.0852 0.15435,0.17522 0.23828,0.2539 0.0327,0.0306 0.0683,0.0562 0.10156,0.0859 0.0784,0.0847 0.15289,0.17373 0.23633,0.25196 0.0326,0.0306 0.0684,0.0562 0.10156,0.0859 0.0802,0.0869 0.15675,0.17772 0.24219,0.25782 0.0339,0.0318 0.071,0.059 0.10547,0.0898 0.0808,0.0876 0.15803,0.17904 0.24414,0.25976 0.0344,0.0323 0.0724,0.0586 0.10742,0.0898 0.0817,0.0887 0.15898,0.182 0.2461,0.26367 0.0343,0.0322 0.0725,0.0586 0.10742,0.0898 0.0834,0.0909 0.16284,0.18599 0.25195,0.26954 0.0351,0.0329 0.0737,0.0599 0.10938,0.0918 0.084,0.0916 0.16412,0.18731 0.2539,0.27149 0.035,0.0328 0.0738,0.06 0.10938,0.0918 0.0857,0.0939 0.16798,0.1913 0.25976,0.27735 0.0357,0.0334 0.075,0.0614 0.11133,0.0937 0.0865,0.0949 0.17096,0.19433 0.26367,0.28125 0.0364,0.0341 0.0762,0.0626 0.11329,0.0957 0.0869,0.0953 0.17055,0.19395 0.26367,0.28125 0.0356,0.0334 0.0751,0.0614 0.11133,0.0937 0.0896,0.0988 0.17718,0.20078 0.27343,0.29102 0.0358,0.0335 0.0749,0.0613 0.11133,0.0937 0.0907,0.10029 0.17977,0.20344 0.27734,0.29492 0.0382,0.0358 0.0803,0.065 0.11915,0.0996 0.09,0.0994 0.17664,0.20222 0.27343,0.29297 0.0381,0.0357 0.0803,0.0651 0.11914,0.0996 0.0918,0.10166 0.1805,0.2062 0.2793,0.29882 0.0373,0.035 0.0792,0.0638 0.11719,0.0977 0.0939,0.10441 0.18586,0.21172 0.28711,0.30664 0.0395,0.037 0.0827,0.0678 0.12304,0.10352 0.0935,0.1039 0.18436,0.21019 0.28516,0.30468 0.0382,0.0358 0.0802,0.0651 0.11914,0.0996 0.0961,0.10742 0.19101,0.21704 0.29492,0.31446 0.0388,0.0364 0.0815,0.0664 0.1211,0.10156 0.0967,0.10817 0.1923,0.21836 0.29687,0.3164 0.0391,0.0367 0.0812,0.0681 0.1211,0.10352 0.0981,0.11004 0.1965,0.22072 0.30273,0.32031 0.0395,0.037 0.0827,0.0678 0.12305,0.10352 0.0989,0.11118 0.19745,0.22368 0.30468,0.32422 0.0402,0.0377 0.084,0.0691 0.125,0.10547 0.10008,0.1127 0.20003,0.22634 0.3086,0.32812 0.0402,0.0377 0.084,0.0691 0.125,0.10547 0.1012,0.11422 0.2026,0.229 0.3125,0.33203 0.0409,0.0383 0.0852,0.0705 0.12695,0.10742 0.10232,0.11574 0.20518,0.23166 0.31641,0.33594 0.0433,0.0406 0.0906,0.0743 0.13476,0.11328 0.10169,0.11488 0.20203,0.23041 0.3125,0.33399 0.0439,0.0412 0.0918,0.0756 0.13672,0.11523 0.10281,0.1164 0.2046,0.23307 0.31641,0.33789 0.0439,0.0412 0.0918,0.0756 0.13672,0.11524 0.104,0.11802 0.20708,0.23759 0.32031,0.34375 0.0469,0.0439 0.0985,0.0809 0.14648,0.12304 0.10281,0.1164 0.2046,0.23307 0.31641,0.33789 0.0431,0.0404 0.0907,0.0744 0.13477,0.11328 0.1076,0.12302 0.21642,0.24526 0.33398,0.35547 0.046,0.0431 0.0955,0.0798 0.14258,0.1211 0.10671,0.12176 0.2136,0.24236 0.33008,0.35156 0.0439,0.0412 0.0918,0.0756 0.13671,0.11523 0.10982,0.1261 0.22158,0.25057 0.3418,0.36328 0.0446,0.0418 0.093,0.077 0.13867,0.11719 0.11037,0.12687 0.22286,0.2519 0.34375,0.36524 0.0473,0.0444 0.098,0.0825 0.14649,0.125 0.10947,0.12561 0.22003,0.249 0.33984,0.36132 0.0457,0.0429 0.0957,0.0799 0.14258,0.1211 0.11256,0.12996 0.22801,0.25722 0.35156,0.37305 0.0483,0.0453 0.10084,0.0835 0.15039,0.12695 0.11141,0.12834 0.22355,0.25462 0.34571,0.36914 0.0455,0.0427 0.096,0.0782 0.14257,0.11914 0.11557,0.13426 0.23411,0.26549 0.36133,0.38477 0.049,0.046 0.10209,0.0849 0.15235,0.1289 0.1136,0.13145 0.22869,0.25993 0.35351,0.37695 0.0475,0.0445 0.0998,0.0824 0.14844,0.125 0.11665,0.13582 0.23668,0.26816 0.36523,0.38868 0.0477,0.0447 0.0996,0.0822 0.14844,0.125 0.11773,0.13738 0.23926,0.27081 0.36914,0.39257 0.0483,0.0453 0.10084,0.0836 0.15039,0.12696 0.11828,0.13817 0.24055,0.27214 0.3711,0.39453 0.0487,0.0457 0.1024,0.0832 0.15234,0.12695 0.11963,0.14015 0.24278,0.27644 0.375,0.40039 0.0514,0.0482 0.10738,0.0887 0.16016,0.13477 0.11878,0.1389 0.23992,0.27351 0.37109,0.39648 0.0519,0.0486 0.10886,0.0903 0.16211,0.13672 0.11986,0.14048 0.2425,0.27617 0.375,0.40039 0.0502,0.047 0.1048,0.0879 0.15625,0.13281 0.12258,0.14448 0.25084,0.28278 0.38672,0.41016 0.0504,0.0472 0.10457,0.0877 0.15625,0.13281 0.12364,0.14606 0.25342,0.28544 0.39062,0.41407 0.0511,0.0479 0.10581,0.089 0.15821,0.13476 0.12471,0.14765 0.25599,0.2881 0.39453,0.41797 0.0514,0.0482 0.10737,0.0887 0.16015,0.13477 0.12552,0.14885 0.25694,0.29105 0.39649,0.42187 0.0545,0.0511 0.1139,0.0939 0.16992,0.14258 0.12443,0.14723 0.25244,0.28842 0.39063,0.41797 0.0525,0.0492 0.1101,0.0917 0.16406,0.13867 0.12764,0.15204 0.26209,0.29637 0.40429,0.42969 0.0555,0.052 0.11482,0.097 0.17188,0.14648 0.12629,0.15001 0.25793,0.29211 0.39844,0.42383 0.0532,0.0499 0.11134,0.0931 0.16601,0.14062 0.12975,0.15525 0.26724,0.30169 0.41211,0.4375 0.0565,0.053 0.11762,0.0981 0.17578,0.14844 0.12816,0.15282 0.26145,0.29772 0.4043,0.43164 0.0542,0.0509 0.11416,0.0941 0.16992,0.14258 0.1316,0.15807 0.27076,0.30731 0.41797,0.44531 0.0545,0.0511 0.1139,0.0939 0.16992,0.14258 0.13265,0.15968 0.27334,0.30997 0.42188,0.44922 0.0579,0.0543 0.12009,0.10085 0.17968,0.15234 0.13133,0.15765 0.26917,0.30569 0.41602,0.44336 0.0586,0.0549 0.12133,0.10223 0.18164,0.1543 0.13237,0.15926 0.27174,0.30834 0.41992,0.44727 0.0565,0.053 0.11762,0.0981 0.17578,0.14843 0.13526,0.16373 0.27978,0.31662 0.43164,0.45899 0.0572,0.0536 0.11886,0.0995 0.17774,0.15039 0,0 0.002,0.002 0.002,0.002 0.13526,0.16373 0.27978,0.31662 0.43164,0.45899 0.0596,0.0559 0.12413,0.1033 0.18555,0.15625 0.13525,0.16372 0.27783,0.31661 0.42969,0.45898 0.0609,0.0571 0.1266,0.10608 0.18945,0.16016 0,0 0.002,0.002 0.002,0.002 0.13526,0.16373 0.27783,0.31661 0.42969,0.45898 0.0601,0.0564 0.12552,0.10482 0.1875,0.15821 0.13754,0.16731 0.28466,0.32363 0.43945,0.46875 0.0616,0.0578 0.12784,0.10746 0.19141,0.16211 0.13754,0.1673 0.28466,0.32363 0.43945,0.46875 0.063,0.059 0.13031,0.11024 0.19532,0.16601 0.13803,0.16809 0.28597,0.32499 0.4414,0.47071 0.064,0.06 0.1331,0.11132 0.19922,0.16796 0.13832,0.16855 0.2856,0.3266 0.44141,0.47266 0.0654,0.0613 0.13556,0.11411 0.20312,0.17188 0.13882,0.16933 0.28692,0.32794 0.44336,0.47461 0.066,0.0619 0.13679,0.1155 0.20508,0.17382 0.13931,0.17012 0.28823,0.3293 0.44531,0.47657 0.0674,0.0632 0.13926,0.11828 0.20899,0.17773 0.13981,0.1709 0.28954,0.33065 0.44726,0.47852 0.0698,0.0654 0.1445,0.12217 0.2168,0.18359 0.13931,0.17012 0.28627,0.3293 0.44336,0.47656 0.0707,0.0662 0.14747,0.12341 0.2207,0.18555 0.1401,0.17136 0.28722,0.33225 0.44531,0.48047 0.0722,0.0677 0.14975,0.12607 0.22461,0.18945 0.14011,0.17138 0.28916,0.3342 0.44727,0.48242 0.0729,0.0683 0.15097,0.12747 0.22656,0.19141 0.1406,0.17217 0.28851,0.33555 0.44727,0.48437 0.0737,0.0691 0.15394,0.12872 0.23047,0.19336 0.14137,0.17341 0.29141,0.33656 0.45117,0.48633 0.0759,0.0712 0.15743,0.13278 0.23633,0.19922 0.14136,0.17339 0.28947,0.33657 0.44921,0.48633 0.0753,0.0705 0.15621,0.13137 0.23438,0.19726 0.14313,0.17623 0.29499,0.34224 0.45703,0.49414 0.0759,0.0712 0.15743,0.13278 0.23633,0.19922 0.14362,0.17702 0.29631,0.34359 0.45898,0.4961 0.0786,0.0737 0.16233,0.13839 0.24414,0.20703 0.14285,0.17576 0.29342,0.34063 0.45508,0.49219 0.0787,0.0737 0.16426,0.13838 0.2461,0.20703 0.14439,0.17826 0.29725,0.34654 0.46093,0.5 0.081,0.076 0.16755,0.14232 0.25196,0.21289 0.14361,0.17701 0.29435,0.34358 0.45703,0.49609 0.0812,0.0761 0.16931,0.14219 0.2539,0.21289 0.14491,0.1791 0.29854,0.34982 0.4629,0.50391 0.0831,0.0779 0.1712,0.14656 0.25781,0.21875 0.14459,0.1786 0.29698,0.34629 0.46093,0.5 0.0826,0.0774 0.17176,0.14501 0.25782,0.2168 0.14662,0.18191 0.30213,0.35356 0.46875,0.50976 0.0855,0.0801 0.17641,0.1505 0.26562,0.22461 0.1454,0.1799 0.29789,0.35118 0.46289,0.50586 0.0856,0.0803 0.1782,0.15037 0.26758,0.22461 0.14663,0.18191 0.30213,0.35356 0.46875,0.50976 0.0865,0.0811 0.17919,0.15163 0.26953,0.22657 0.14739,0.18317 0.30307,0.35652 0.47071,0.51367 0.0889,0.0833 0.18438,0.15559 0.27734,0.23242 0.14691,0.18237 0.29981,0.35517 0.4668,0.51172 0.0893,0.0838 0.18583,0.15718 0.27929,0.23437 0.14788,0.18398 0.30244,0.35788 0.47071,0.51563 0.089,0.0834 0.18428,0.15746 0.27734,0.23437 0.14933,0.18638 0.30833,0.36194 0.47852,0.52149 0.0909,0.0852 0.18802,0.15984 0.2832,0.23828 0.14912,0.18603 0.30664,0.36219 0.47656,0.52148 0.0933,0.0875 0.19322,0.16382 0.29102,0.24414 0.14864,0.18524 0.30337,0.36084 0.47265,0.51954 0.0943,0.0884 0.19611,0.16699 0.29492,0.24804 0.14916,0.18609 0.3066,0.3641 0.47657,0.52344 0.0953,0.0894 0.19685,0.1681 0.29687,0.25 0.14961,0.18684 0.30601,0.36354 0.47656,0.52344 0.0958,0.0898 0.19832,0.1697 0.29883,0.25195 0.15058,0.18844 0.30863,0.36625 0.48047,0.52735 0.098,0.0919 0.20372,0.17385 0.30664,0.25781 0.15037,0.1881 0.30695,0.3665 0.47852,0.52734 0.0982,0.092 0.2035,0.1737 0.30664,0.25781 0.15133,0.18972 0.30957,0.36921 0.48242,0.53125 0.1,0.0938 0.20736,0.17815 0.3125,0.26368 0.15133,0.18971 0.30957,0.3692 0.48242,0.53125 0.0999,0.0937 0.20747,0.17627 0.3125,0.26171 0.15261,0.19186 0.31373,0.37543 0.48828,0.53907 0.10217,0.0958 0.21083,0.18038 0.31836,0.26758 0.15209,0.19098 0.31052,0.37216 0.48438,0.53515 0.10202,0.0956 0.21098,0.18245 0.31836,0.26953 0.15353,0.19341 0.3164,0.37623 0.49218,0.54102 0.10315,0.0967 0.21169,0.18353 0.32032,0.27148 0.154,0.19422 0.31772,0.37758 0.49414,0.54297 0.10554,0.0989 0.21685,0.18756 0.32812,0.27735 0.15353,0.1934 0.31446,0.37622 0.49024,0.54101 0.10565,0.0991 0.21868,0.18748 0.33008,0.27734 0.15475,0.1955 0.3167,0.38054 0.49414,0.54688 0.10565,0.0991 0.21868,0.18748 0.33007,0.27734 0.15599,0.19759 0.32092,0.38485 0.5,0.55274 0.10758,0.10085 0.22046,0.19187 0.33399,0.2832 0.15571,0.19712 0.32129,0.38324 0.5,0.55078 0.10997,0.1031 0.22561,0.19592 0.3418,0.28906 0.15528,0.19639 0.31795,0.38378 0.49609,0.55079 0.11007,0.10319 0.22745,0.19584 0.34375,0.28906 0.15646,0.1984 0.32223,0.3862 0.50195,0.55469 0.11237,0.10534 0.23075,0.19997 0.34961,0.29492 0.15599,0.19758 0.31896,0.38485 0.49805,0.55273 0.11246,0.10544 0.2326,0.1999 0.35156,0.29492 0.15726,0.19978 0.3231,0.39105 0.50391,0.56055 0.11476,0.10759 0.23589,0.20403 0.35742,0.30078 0.15673,0.19887 0.3199,0.38781 0.5,0.55664 0.1135,0.10642 0.23534,0.2011 0.35547,0.2969 0.15917,0.2031 0.32637,0.3964 0.50976,0.5684 0.11679,0.1095 0.23948,0.2083 0.36329,0.3066 0.15768,0.2005 0.32253,0.3905 0.5039,0.5605 0.11627,0.1091 0.24006,0.2088 0.36328,0.3067 0.15937,0.2034 0.32805,0.3962 0.51172,0.5683 0.11783,0.1105 0.24222,0.2096 0.36719,0.3086 0.15964,0.2039 0.32768,0.3978 0.51172,0.5704 0.12053,0.113 0.24699,0.2153 0.375,0.3164 0.1589,0.2026 0.32479,0.3948 0.50781,0.5664 0.12053,0.113 0.24699,0.2153 0.375,0.3164 0.16015,0.2048 0.32894,0.3991 0.51367,0.5722 0.12225,0.1147 0.25092,0.218 0.38086,0.3204 0.16017,0.2048 0.32696,0.401 0.51172,0.5742 0.12331,0.1156 0.25364,0.2211 0.38477,0.3242 0.16037,0.2052 0.33059,0.4007 0.51562,0.5742 0.12496,0.1172 0.25568,0.2238 0.38867,0.3281 0.16058,0.2056 0.32836,0.4005 0.51367,0.5743 0.126,0.1181 0.25842,0.225 0.39258,0.33 0.16132,0.2069 0.3293,0.4035 0.51563,0.5782 0.12435,0.1165 0.25637,0.2223 0.38867,0.3261 0.16346,0.2106 0.33613,0.4105 0.52539,0.5879 0.12668,0.1188 0.2596,0.2265 0.39453,0.332 0.16299,0.2098 0.33482,0.4092 0.52344,0.586 0.12803,0.12 0.26198,0.2294 0.39844,0.3359 0.16346,0.2106 0.33613,0.4105 0.52539,0.5879 0.1287,0.1207 0.26316,0.2309 0.40039,0.3379 0.16392,0.2114 0.33745,0.4118 0.52734,0.5898 0.13006,0.122 0.26554,0.2338 0.4043,0.3418 0.16439,0.2123 0.33876,0.4132 0.5293,0.5918 0.13109,0.123 0.26826,0.235 0.4082,0.3438 0.16466,0.2127 0.33839,0.4148 0.5293,0.5937 0.13245,0.1243 0.27063,0.238 0.4121,0.3477 0.16513,0.2136 0.33971,0.4161 0.53125,0.5957 0.13485,0.1264 0.27573,0.2421 0.41993,0.3535 0.16466,0.2127 0.33643,0.4148 0.52734,0.5938 0.13489,0.1264 0.27763,0.242 0.42188,0.3535 0.16585,0.2148 0.33869,0.4191 0.53124,0.5996 0.1362,0.1277 0.27809,0.245 0.42383,0.3574 0.16632,0.2157 0.34196,0.4205 0.53516,0.6016 0.13687,0.1283 0.27927,0.2464 0.42578,0.3594 0.16678,0.2165 0.34327,0.4218 0.53711,0.6035 0.13927,0.1305 0.28435,0.2506 0.43359,0.3652 0.16632,0.2157 0.34001,0.4204 0.53321,0.6016 0.14062,0.1318 0.2867,0.2536 0.4375,0.3691 0.16677,0.2165 0.34132,0.4218 0.53515,0.6035 0.14032,0.1316 0.28706,0.2519 0.4375,0.3672 0.16823,0.2191 0.34516,0.4277 0.54102,0.6113 0.1413,0.1325 0.28788,0.2551 0.43945,0.3711 0.16843,0.2195 0.34684,0.4275 0.54297,0.6114 0.14333,0.1343 0.29142,0.2595 0.44531,0.3769 0.16824,0.2192 0.34515,0.4277 0.54102,0.6113 0.14371,0.1348 0.29488,0.2593 0.44922,0.377 0.16915,0.2208 0.34778,0.4304 0.54492,0.6152 0.60746,0.5695 1.30818,0.9863 2.10547,1.252 0.79729,0.2278 1.67194,0.3418 2.62109,0.3418 0.91119,0 1.76521,-0.114 2.5625,-0.3418 0.79729,-0.2657 1.48129,-0.6825 2.05078,-1.252 0.60746,-0.5695 1.08019,-1.3095 1.42188,-2.2207 0.37966,-0.9112 0.57031,-2.0511 0.57031,-3.4179 0,-1.3667 -0.19065,-2.5049 -0.57031,-3.4161 -0.34169,-0.9112 -0.81442,-1.6531 -1.42188,-2.2226 -0.14914,-0.1492 -0.30789,-0.2845 -0.47265,-0.4102 -0.16226,-0.2084 -0.33388,-0.4062 -0.52149,-0.582 -0.14977,-0.1498 -0.30712,-0.286 -0.47265,-0.4121 -0.16059,-0.2055 -0.32836,-0.4005 -0.51368,-0.5742 -0.1485,-0.1485 -0.3067,-0.2849 -0.4707,-0.4102 -0.16017,-0.2048 -0.32696,-0.401 -0.51172,-0.5742 -0.14809,-0.1481 -0.30524,-0.2832 -0.46875,-0.4082 -0.15937,-0.2034 -0.3261,-0.3962 -0.50976,-0.5684 -0.14641,-0.1464 -0.30143,-0.2804 -0.46289,-0.4043 -0.15938,-0.2034 -0.3261,-0.3962 -0.50977,-0.5683 -0.14471,-0.1447 -0.2976,-0.2778 -0.45703,-0.4004 -0.15937,-0.2034 -0.32805,-0.3962 -0.51172,-0.5684 -0.14471,-0.1447 -0.29565,-0.2777 -0.45508,-0.4004 -0.15815,-0.2013 -0.32579,-0.3918 -0.50781,-0.5625 -0.14406,-0.144 -0.29448,-0.2762 -0.45312,-0.3984 -0.15721,-0.1997 -0.32318,-0.3891 -0.50391,-0.5586 -0.14237,-0.1424 -0.29261,-0.2735 -0.44922,-0.3945 -0.15721,-0.1997 -0.32317,-0.3892 -0.50391,-0.5586 -0.14237,-0.1424 -0.29261,-0.2735 -0.44922,-0.3946 -0.15598,-0.1975 -0.31896,-0.3848 -0.49804,-0.5527 -0.14237,-0.1424 -0.29456,-0.2755 -0.45117,-0.3965 -0.15456,-0.1951 -0.31503,-0.3808 -0.49219,-0.5468 -0.14005,-0.1401 -0.28758,-0.2693 -0.44141,-0.3887 -0.15528,-0.1964 -0.31795,-0.3838 -0.49609,-0.5508 -0.1404,-0.1404 -0.28911,-0.269 -0.44336,-0.3887 -0.15381,-0.1938 -0.31408,-0.3778 -0.49024,-0.5429 -0.13874,-0.1388 -0.28523,-0.2683 -0.4375,-0.3868 -0.15357,-0.1934 -0.31439,-0.3781 -0.49023,-0.5429 -0.13808,-0.1381 -0.28407,-0.26487 -0.43555,-0.38287 -0.15305,-0.19259 -0.31313,-0.37487 -0.48828,-0.53906 -0.13678,-0.13678 -0.28171,-0.26379 -0.43164,-0.38086 -0.15257,-0.19179 -0.31182,-0.37352 -0.48633,-0.53711 -0.13416,-0.13416 -0.27702,-0.25785 -0.42382,-0.37304 -0.15333,-0.19307 -0.31472,-0.37648 -0.49024,-0.54102 -0.13314,-0.13314 -0.27433,-0.25468 -0.41992,-0.36914 -0.15305,-0.1926 -0.31314,-0.37487 -0.48828,-0.53906 -0.13052,-0.13051 -0.26963,-0.24877 -0.41211,-0.36133 -0.15381,-0.19387 -0.31603,-0.37783 -0.49219,-0.54297 -0.13048,-0.13048 -0.26771,-0.24878 -0.41015,-0.36133 -0.15258,-0.19179 -0.31378,-0.37352 -0.48829,-0.53711 -0.13114,-0.13114 -0.26888,-0.25026 -0.41211,-0.36328 -0.15085,-0.18891 -0.30825,-0.36785 -0.48046,-0.5293 -0.12855,-0.12854 -0.2661,-0.24433 -0.40625,-0.35546 -0.15162,-0.19018 -0.3092,-0.37082 -0.48243,-0.53321 -0.12587,-0.12587 -0.25947,-0.24043 -0.39648,-0.34961 -0.1523,-0.19132 -0.3122,-0.37191 -0.48633,-0.53515 -0.12754,-0.12754 -0.26338,-0.24312 -0.40234,-0.35352 -0.14965,-0.18689 -0.30596,-0.3635 -0.47657,-0.52344 -0.1246,-0.1246 -0.25706,-0.23941 -0.39257,-0.34765 -0.15058,-0.18844 -0.31058,-0.36625 -0.48243,-0.52735 -0.12355,-0.12355 -0.25439,-0.23432 -0.38867,-0.34179 -0.15037,-0.18811 -0.30889,-0.3665 -0.48047,-0.52735 -0.12223,-0.12223 -0.25203,-0.23139 -0.38476,-0.33789 -0.14989,-0.1873 -0.30758,-0.36515 -0.47852,-0.52539 -0.12123,-0.12123 -0.2493,-0.23019 -0.38086,-0.33594 -0.14961,-0.18683 -0.30795,-0.36354 -0.47851,-0.52343 -0.11992,-0.11991 -0.24694,-0.22727 -0.37695,-0.33203 -0.14913,-0.18604 -0.30665,-0.36219 -0.47657,-0.52149 -0.11891,-0.1189 -0.24421,-0.22607 -0.37304,-0.33008 -0.14885,-0.18557 -0.30506,-0.36058 -0.47461,-0.51953 -0.11766,-0.11765 -0.24372,-0.2231 -0.3711,-0.32617 -0.14836,-0.18477 -0.3057,-0.35923 -0.47461,-0.51758 -0.11759,-0.11759 -0.24183,-0.22315 -0.36914,-0.32617 -0.14711,-0.18271 -0.30149,-0.35492 -0.46875,-0.51172 -0.11639,-0.11639 -0.24127,-0.2221 -0.36718,-0.32422 -0.14663,-0.18191 -0.30018,-0.35356 -0.4668,-0.50976 -0.11378,-0.11378 -0.23651,-0.21627 -0.35938,-0.31641 -0.14739,-0.18317 -0.30307,-0.35652 -0.4707,-0.51367 -0.11264,-0.11263 -0.23197,-0.21323 -0.35352,-0.3125 -0.14711,-0.18271 -0.30344,-0.35492 -0.4707,-0.51172 -0.11139,-0.11139 -0.23145,-0.21027 -0.35156,-0.30859 -0.14665,-0.18196 -0.30014,-0.35354 -0.4668,-0.50977 -0.11146,-0.11146 -0.23137,-0.21218 -0.35156,-0.31055 -0.14537,-0.17985 -0.29792,-0.34925 -0.46289,-0.5039 -0.10884,-0.10884 -0.22659,-0.20638 -0.34375,-0.30274 -0.14614,-0.18111 -0.30082,-0.35221 -0.4668,-0.50781 -0.10803,-0.10802 -0.22362,-0.2031 -0.33984,-0.29883 -0.14565,-0.18031 -0.29951,-0.35086 -0.46485,-0.50586 -0.10636,-0.10636 -0.21967,-0.20048 -0.33398,-0.29492 -0.14537,-0.17986 -0.29987,-0.34925 -0.46484,-0.50391 -0.10449,-0.10447 -0.21793,-0.19608 -0.33008,-0.28906 -0.14565,-0.18031 -0.29951,-0.35086 -0.46485,-0.50586 -0.10438,-0.10438 -0.21608,-0.19615 -0.32812,-0.28906 -0.14439,-0.17827 -0.29725,-0.34654 -0.46094,-0.5 -0.10216,-0.10216 -0.21277,-0.19204 -0.32226,-0.2832 -0.14488,-0.17906 -0.29856,-0.3479 -0.46289,-0.50196 -0.10176,-0.10175 -0.21129,-0.1904 -0.32032,-0.28125 -0.1439,-0.17747 -0.29593,-0.34519 -0.45898,-0.49804 -0.0995,-0.0995 -0.20796,-0.1863 -0.31445,-0.27539 -0.1444,-0.17827 -0.29725,-0.34655 -0.46094,-0.5 -0.0994,-0.0994 -0.20613,-0.18638 -0.3125,-0.27539 -0.14313,-0.17622 -0.29499,-0.34224 -0.45703,-0.49414 -0.10009,-0.10009 -0.20733,-0.18781 -0.31446,-0.27735 -0.14136,-0.17339 -0.28947,-0.33657 -0.44921,-0.48633 -0.0983,-0.0983 -0.20544,-0.1853 -0.31055,-0.27343 -0.14139,-0.17342 -0.28945,-0.33656 -0.44922,-0.48633 -0.096,-0.096 -0.20026,-0.18129 -0.30273,-0.26758 -0.14187,-0.17418 -0.29274,-0.33792 -0.45313,-0.48828 -0.0945,-0.0945 -0.19613,-0.17665 -0.29687,-0.26172 -0.14187,-0.17418 -0.29274,-0.33792 -0.45313,-0.48828 -0.0951,-0.0951 -0.19734,-0.17808 -0.29883,-0.26367 -0.14009,-0.17136 -0.28721,-0.33226 -0.44531,-0.48047 -0.094,-0.094 -0.19662,-0.177 -0.29688,-0.26172 -0.1396,-0.17057 -0.2859,-0.3309 -0.44335,-0.47852 -0.0911,-0.0911 -0.19022,-0.17157 -0.28711,-0.2539 -0.14059,-0.17215 -0.29049,-0.33361 -0.44922,-0.48242 -0.0902,-0.0902 -0.18732,-0.1684 -0.28321,-0.25 -0.14009,-0.17136 -0.28721,-0.33226 -0.44531,-0.48047 -0.0893,-0.0893 -0.18635,-0.16715 -0.28125,-0.24805 -0.13931,-0.17012 -0.28822,-0.3293 -0.44531,-0.47656 -0.0875,-0.0876 -0.18246,-0.16272 -0.27539,-0.24219 -0.1396,-0.17057 -0.28786,-0.3309 -0.44531,-0.47852 -0.0862,-0.0862 -0.18004,-0.15988 -0.27149,-0.23828 -0.1391,-0.16978 -0.28654,-0.32955 -0.44336,-0.47656 -0.0852,-0.0852 -0.17725,-0.15876 -0.26758,-0.23633 -0.13882,-0.16933 -0.28691,-0.32794 -0.44336,-0.47461 -0.0839,-0.0839 -0.17482,-0.15593 -0.26367,-0.23242 -0.13832,-0.16854 -0.2856,-0.32659 -0.4414,-0.47266 -0.0839,-0.0839 -0.17483,-0.15593 -0.26368,-0.23242 -0.13704,-0.16653 -0.28138,-0.32227 -0.43554,-0.46679 -0.0819,-0.0819 -0.17125,-0.15372 -0.25781,-0.22852 -0.13754,-0.16731 -0.28271,-0.32363 -0.4375,-0.46875 -0.0824,-0.0824 -0.17457,-0.15523 -0.26172,-0.23047 -0.13526,-0.16373 -0.27783,-0.31661 -0.42969,-0.45898 -0.0798,-0.0798 -0.16772,-0.14765 -0.25195,-0.22071 -0.13655,-0.16574 -0.28008,-0.32092 -0.4336,-0.46484 -0.0774,-0.0774 -0.16248,-0.14372 -0.24414,-0.21484 -0.13704,-0.16653 -0.28334,-0.32228 -0.4375,-0.4668 -0.0779,-0.0779 -0.16193,-0.14526 -0.24414,-0.2168 -0.13525,-0.16372 -0.27978,-0.31661 -0.43164,-0.45898 -0.0763,-0.0763 -0.15983,-0.14076 -0.24023,-0.21094 -0.13526,-0.16373 -0.27783,-0.31661 -0.42969,-0.45898 -0.0745,-0.0745 -0.15601,-0.13841 -0.23438,-0.20703 -0.13525,-0.16373 -0.27977,-0.31662 -0.43164,-0.45899 -0.0729,-0.0729 -0.15389,-0.13391 -0.23047,-0.20117 -0.13525,-0.16373 -0.27782,-0.31662 -0.42968,-0.45899 -0.0763,-0.0763 -0.15988,-0.14274 -0.24024,-0.21289 -0.13132,-0.15764 -0.26916,-0.30569 -0.41601,-0.44336 -0.0756,-0.0756 -0.15865,-0.14134 -0.23828,-0.21093 -0.13028,-0.15605 -0.26658,-0.30497 -0.41211,-0.44141 -0.0768,-0.0768 -0.16126,-0.14232 -0.24219,-0.21289 -0.12816,-0.15282 -0.26145,-0.29772 -0.4043,-0.43164 -0.0743,-0.0743 -0.15619,-0.13854 -0.23437,-0.20703 -0.1287,-0.15364 -0.26272,-0.30099 -0.40625,-0.43555 -0.0755,-0.0755 -0.15881,-0.13951 -0.23828,-0.20898 -0.12657,-0.15042 -0.25759,-0.29374 -0.39844,-0.42578 -0.0737,-0.0737 -0.15496,-0.13715 -0.23242,-0.20508 -0.12657,-0.15042 -0.25759,-0.29374 -0.39844,-0.42578 -0.0697,-0.0697 -0.14757,-0.12876 -0.2207,-0.19336 -0.12845,-0.15326 -0.26304,-0.29934 -0.40626,-0.4336 -0.0676,-0.0675 -0.14213,-0.12475 -0.21289,-0.1875 -0.12869,-0.15364 -0.26466,-0.29903 -0.4082,-0.43359 -0.0669,-0.0669 -0.14089,-0.12336 -0.21094,-0.18555 -0.12817,-0.15284 -0.26338,-0.2977 -0.40625,-0.43164 -0.0677,-0.0677 -0.14194,-0.12461 -0.21289,-0.1875 -0.12605,-0.14965 -0.25822,-0.29238 -0.39843,-0.42383 -0.0707,-0.0707 -0.14845,-0.12987 -0.22266,-0.19531 -0.12229,-0.14405 -0.2473,-0.28311 -0.38281,-0.41015 -0.0652,-0.0652 -0.13686,-0.12089 -0.20508,-0.18165 -0.12525,-0.14844 -0.25728,-0.28942 -0.39649,-0.41992 -0.0675,-0.0675 -0.14213,-0.12475 -0.21289,-0.1875 -0.12204,-0.14368 -0.2476,-0.2834 -0.38281,-0.41015 -0.0705,-0.0705 -0.14863,-0.13003 -0.22266,-0.19532 -0.11823,-0.13811 -0.23863,-0.27218 -0.36914,-0.39453 -0.0651,-0.0651 -0.137,-0.12101 -0.20507,-0.18164 -0.12151,-0.14289 -0.24827,-0.28012 -0.38282,-0.40625 -0.0641,-0.0641 -0.1342,-0.11798 -0.20117,-0.17773 -0.12094,-0.14206 -0.24507,-0.27883 -0.3789,-0.4043 -0.0662,-0.0662 -0.13966,-0.12197 -0.20899,-0.18359 -0.11773,-0.13739 -0.23925,-0.27082 -0.36914,-0.39258 -0.0634,-0.0634 -0.13297,-0.1166 -0.19922,-0.17578 -0.11878,-0.1389 -0.23992,-0.27352 -0.37109,-0.39649 -0.0649,-0.0649 -0.13719,-0.1192 -0.20508,-0.17968 -0.11611,-0.13504 -0.23539,-0.26683 -0.36328,-0.38672 -0.0654,-0.0654 -0.13668,-0.12075 -0.20508,-0.18164 -0.11415,-0.13223 -0.22998,-0.26126 -0.35547,-0.37891 -0.0618,-0.0618 -0.13081,-0.11408 -0.19531,-0.17187 -0.11611,-0.13504 -0.23539,-0.26683 -0.36328,-0.38672 -0.0641,-0.0641 -0.13421,-0.11798 -0.20117,-0.17774 -0.11251,-0.12989 -0.22612,-0.25727 -0.34961,-0.37304 -0.0638,-0.0638 -0.13453,-0.11824 -0.20118,-0.17774 -0.11141,-0.12834 -0.22354,-0.25462 -0.3457,-0.36914 -0.0602,-0.0602 -0.12675,-0.11162 -0.18945,-0.16797 -0.11311,-0.13074 -0.2293,-0.25855 -0.35352,-0.375 -0.0598,-0.0598 -0.1252,-0.11 -0.1875,-0.16601 -0.11201,-0.12919 -0.22672,-0.25589 -0.34961,-0.3711 -0.0621,-0.0621 -0.13049,-0.11383 -0.19531,-0.17187 -0.10865,-0.12447 -0.21711,-0.24798 -0.33594,-0.35938 -0.0615,-0.0615 -0.12923,-0.11438 -0.19336,-0.17187 -0.10781,-0.1233 -0.21617,-0.24502 -0.33398,-0.35547 -0.0582,-0.0582 -0.12302,-0.10748 -0.18359,-0.16211 -0.10927,-0.12532 -0.22029,-0.24924 -0.33985,-0.36133 -0.0591,-0.0591 -0.12397,-0.10862 -0.18554,-0.16406 -0.10678,-0.12186 -0.21352,-0.24424 -0.33008,-0.35352 -0.059,-0.059 -0.12413,-0.10875 -0.18555,-0.16406 -0.10566,-0.12032 -0.2129,-0.23964 -0.32812,-0.34766 -0.0565,-0.0565 -0.11901,-0.10312 -0.17774,-0.15625 -0.1065,-0.12147 -0.21384,-0.24259 -0.33008,-0.35156 -0.0558,-0.0558 -0.11775,-0.10175 -0.17578,-0.1543 -0.10539,-0.11994 -0.21127,-0.23993 -0.32617,-0.34765 -0.0555,-0.0555 -0.11618,-0.10206 -0.17383,-0.1543 -0.10455,-0.11878 -0.21032,-0.23698 -0.32422,-0.34375 -0.0548,-0.0548 -0.11493,-0.10068 -0.17187,-0.15234 -0.10344,-0.11726 -0.20775,-0.23432 -0.32031,-0.33985 -0.0565,-0.0565 -0.11901,-0.10312 -0.17774,-0.15625 -0.10056,-0.11335 -0.19945,-0.22775 -0.30859,-0.33007 -0.0526,-0.0526 -0.11147,-0.0968 -0.16602,-0.14649 -0.10281,-0.1164 -0.20459,-0.23307 -0.3164,-0.33789 -0.0577,-0.0577 -0.12164,-0.10599 -0.18165,-0.16016 -0.0969,-0.10841 -0.19207,-0.21815 -0.29687,-0.3164 -0.0537,-0.0537 -0.11417,-0.0977 -0.16992,-0.14844 -0.0989,-0.11108 -0.19559,-0.22377 -0.30274,-0.32422 -0.0519,-0.052 -0.11021,-0.0954 -0.16406,-0.14453 -0.099,-0.11118 -0.19745,-0.22368 -0.30469,-0.32422 -0.0515,-0.0515 -0.1087,-0.0938 -0.16211,-0.14258 -0.0978,-0.10967 -0.19487,-0.22102 -0.30078,-0.32031 -0.0535,-0.0535 -0.11244,-0.0979 -0.16797,-0.14844 -0.0946,-0.1054 -0.18693,-0.21284 -0.28906,-0.30859 -0.0491,-0.0491 -0.10351,-0.0902 -0.1543,-0.13672 -0.097,-0.10853 -0.19392,-0.21806 -0.29882,-0.3164 -0.0508,-0.0508 -0.1076,-0.0926 -0.16016,-0.14063 -0.094,-0.10465 -0.18564,-0.21152 -0.28711,-0.30664 -0.0516,-0.0516 -0.10863,-0.0957 -0.16211,-0.14453 -0.092,-0.10202 -0.18213,-0.20591 -0.28125,-0.29883 -0.049,-0.049 -0.10362,-0.0903 -0.15429,-0.13672 -0.093,-0.10328 -0.18492,-0.20876 -0.28516,-0.30273 -0.0502,-0.0502 -0.10621,-0.0911 -0.1582,-0.13867 -0.0901,-0.0994 -0.17664,-0.20223 -0.27344,-0.29297 -0.0477,-0.0477 -0.10112,-0.0875 -0.15039,-0.13282 -0.0913,-0.10104 -0.18105,-0.20477 -0.2793,-0.29687 -0.0492,-0.0492 -0.10338,-0.0901 -0.1543,-0.13672 -0.088,-0.0968 -0.17312,-0.19661 -0.26757,-0.28516 -0.0477,-0.0477 -0.10112,-0.0875 -0.1504,-0.13281 -0.0881,-0.0969 -0.17299,-0.19844 -0.26757,-0.28711 -0.0501,-0.0501 -0.10635,-0.0912 -0.15821,-0.13867 -0.0846,-0.0924 -0.1654,-0.18864 -0.25586,-0.27344 -0.0465,-0.0465 -0.0985,-0.0847 -0.14648,-0.1289 -0.0863,-0.0946 -0.16927,-0.19263 -0.26172,-0.2793 -0.0451,-0.0451 -0.0961,-0.0821 -0.14258,-0.125 -0.0861,-0.0944 -0.16946,-0.19281 -0.26172,-0.2793 -0.0442,-0.0442 -0.093,-0.0808 -0.13867,-0.12304 -0.0853,-0.0933 -0.16852,-0.18985 -0.25976,-0.27539 -0.0459,-0.0459 -0.0971,-0.0833 -0.14453,-0.12696 -0.0822,-0.0894 -0.16027,-0.18333 -0.24805,-0.26562 -0.0454,-0.0454 -0.0958,-0.0838 -0.14258,-0.12696 -0.0814,-0.0883 -0.15932,-0.18037 -0.24609,-0.26171 -0.0427,-0.0427 -0.0907,-0.0783 -0.13477,-0.11915 -0.0824,-0.0896 -0.16208,-0.1832 -0.25,-0.26562 -0.0423,-0.0423 -0.0893,-0.0768 -0.13281,-0.11719 -0.0812,-0.0881 -0.15951,-0.18054 -0.2461,-0.26172 -0.0416,-0.0416 -0.088,-0.0754 -0.13085,-0.11523 -0.08,-0.0867 -0.15693,-0.17788 -0.24219,-0.25781 -0.0402,-0.0402 -0.0856,-0.0728 -0.12696,-0.11133 -0.08,-0.0867 -0.15692,-0.17789 -0.24218,-0.25781 -0.0423,-0.0423 -0.0893,-0.0768 -0.13282,-0.11719 -0.0767,-0.0825 -0.14902,-0.16975 -0.23046,-0.2461 -0.0389,-0.0389 -0.0831,-0.0701 -0.12305,-0.10742 -0.0783,-0.0845 -0.15307,-0.17389 -0.23633,-0.25195 -0.041,-0.041 -0.0868,-0.0741 -0.1289,-0.11328 -0.0749,-0.0803 -0.14518,-0.16576 -0.22461,-0.24024 -0.0379,-0.0379 -0.0803,-0.0691 -0.11915,-0.10546 -0.0762,-0.0819 -0.14954,-0.16828 -0.23046,-0.24415 -0.0383,-0.0383 -0.0817,-0.0687 -0.1211,-0.10546 -0.0742,-0.0794 -0.14405,-0.16459 -0.22265,-0.23829 -0.038,-0.038 -0.0802,-0.069 -0.11914,-0.10546 -0.0733,-0.0783 -0.14311,-0.16163 -0.22071,-0.23438 -0.0373,-0.0373 -0.0789,-0.0677 -0.11718,-0.10351 -0.0721,-0.0769 -0.14054,-0.15897 -0.2168,-0.23047 -0.0383,-0.0383 -0.0817,-0.0687 -0.1211,-0.10547 -0.0695,-0.0738 -0.13359,-0.15381 -0.20703,-0.22266 -0.0378,-0.0378 -0.0803,-0.0692 -0.11914,-0.10547 -0.0687,-0.0727 -0.13265,-0.15085 -0.20508,-0.21875 -0.0355,-0.0355 -0.0749,-0.0654 -0.11132,-0.0996 -0.0694,-0.0736 -0.13573,-0.15202 -0.20899,-0.2207 -0.035,-0.035 -0.0735,-0.0639 -0.10937,-0.0977 -0.0682,-0.0722 -0.13315,-0.14936 -0.20508,-0.21679 -0.0344,-0.0344 -0.0722,-0.0626 -0.10742,-0.0957 -0.067,-0.0708 -0.13058,-0.1467 -0.20117,-0.21289 -0.0329,-0.0329 -0.0698,-0.06 -0.10352,-0.0918 -0.067,-0.0708 -0.13057,-0.14671 -0.20117,-0.21289 -0.0347,-0.0347 -0.0738,-0.0623 -0.10938,-0.0957 -0.0639,-0.0671 -0.12236,-0.14022 -0.18945,-0.20312 -0.0342,-0.0342 -0.0724,-0.0628 -0.10742,-0.0957 -0.0629,-0.066 -0.12142,-0.13726 -0.1875,-0.19921 -0.0329,-0.033 -0.0698,-0.06 -0.10352,-0.0918 -0.0623,-0.0653 -0.12013,-0.13594 -0.18554,-0.19727 -0.0332,-0.0332 -0.0715,-0.0597 -0.10547,-0.0918 -0.0608,-0.0635 -0.11593,-0.13359 -0.17969,-0.19336 -0.0316,-0.0316 -0.0673,-0.0573 -0.0996,-0.0879 -0.0605,-0.0632 -0.11627,-0.13196 -0.17969,-0.19141 -0.0306,-0.0306 -0.0645,-0.0564 -0.0957,-0.0859 -0.0601,-0.0627 -0.11675,-0.13045 -0.17969,-0.18945 -0.031,-0.031 -0.066,-0.056 -0.0977,-0.0859 -0.0581,-0.0604 -0.11113,-0.12664 -0.17188,-0.18359 -0.029,-0.029 -0.0622,-0.052 -0.0918,-0.0801 -0.0586,-0.0609 -0.11254,-0.1281 -0.17382,-0.18555 -0.0287,-0.0287 -0.0605,-0.0522 -0.0898,-0.0801 -0.0571,-0.0592 -0.11031,-0.12381 -0.16992,-0.17969 -0.0297,-0.0297 -0.0634,-0.0532 -0.0937,-0.082 -0.0544,-0.0562 -0.10341,-0.11868 -0.16016,-0.17188 -0.0292,-0.0293 -0.0619,-0.0537 -0.0918,-0.082 -0.0535,-0.0551 -0.10247,-0.11572 -0.15821,-0.16797 -0.0273,-0.0273 -0.0581,-0.0497 -0.0859,-0.0762 -0.054,-0.0557 -0.10388,-0.11716 -0.16016,-0.16992 -0.0268,-0.0268 -0.0567,-0.0482 -0.084,-0.0742 -0.0528,-0.0543 -0.10129,-0.1145 -0.15624,-0.16602 -0.0274,-0.0274 -0.058,-0.0495 -0.0859,-0.0762 -0.0504,-0.0517 -0.096,-0.10908 -0.14844,-0.1582 -0.0247,-0.0247 -0.053,-0.0443 -0.0781,-0.0684 -0.0516,-0.0529 -0.0987,-0.11184 -0.15235,-0.16211 -0.0261,-0.0261 -0.0555,-0.0469 -0.082,-0.0723 -0.0486,-0.0496 -0.0922,-0.10509 -0.14258,-0.15234 -0.0247,-0.0247 -0.053,-0.0443 -0.0781,-0.0684 -0.0485,-0.0495 -0.0923,-0.10519 -0.14258,-0.15234 -0.0244,-0.0244 -0.0514,-0.0446 -0.0762,-0.0684 -0.047,-0.0479 -0.09,-0.10081 -0.13867,-0.14649 -0.0234,-0.0233 -0.0505,-0.0417 -0.0742,-0.0644 -0.0466,-0.0474 -0.0884,-0.10121 -0.13672,-0.14648 -0.0234,-0.0234 -0.0504,-0.0416 -0.0742,-0.0645 -0.0448,-0.0455 -0.0845,-0.0971 -0.13086,-0.14062 -0.0224,-0.0224 -0.0476,-0.0407 -0.0703,-0.0625 -0.0444,-0.045 -0.0849,-0.0956 -0.13086,-0.13867 -0.0218,-0.0218 -0.0462,-0.0393 -0.0684,-0.0606 -0.0432,-0.0437 -0.0823,-0.0929 -0.12695,-0.13477 -0.0208,-0.0208 -0.0453,-0.0363 -0.0664,-0.0566 -0.0429,-0.0433 -0.0807,-0.0932 -0.125,-0.13476 -0.0205,-0.0205 -0.0437,-0.0366 -0.0644,-0.0566 -0.0413,-0.0417 -0.0785,-0.0889 -0.1211,-0.12891 -0.0211,-0.0211 -0.045,-0.0379 -0.0664,-0.0586 -0.0389,-0.039 -0.0732,-0.0836 -0.11329,-0.1211 -0.0198,-0.0198 -0.0424,-0.0353 -0.0625,-0.0547 -0.0389,-0.039 -0.0732,-0.0835 -0.11328,-0.1211 -0.0161,-0.0161 -0.0344,-0.029 -0.0508,-0.0449 -0.0408,-0.0411 -0.0771,-0.0875 -0.11914,-0.12695 -0.0198,-0.0198 -0.0425,-0.0353 -0.0625,-0.0547 -0.0357,-0.0356 -0.0669,-0.077 -0.10351,-0.11133 -0.0211,-0.0211 -0.045,-0.038 -0.0664,-0.0586 -0.0328,-0.0326 -0.0621,-0.07 -0.0957,-0.10157 -0.0175,-0.0175 -0.037,-0.0317 -0.0547,-0.0488 -0.0347,-0.0346 -0.0659,-0.074 -0.10156,-0.10743 -0.0169,-0.0168 -0.0357,-0.0303 -0.0527,-0.0469 -0.0335,-0.0332 -0.0633,-0.0714 -0.0977,-0.10352 -0.0161,-0.0161 -0.0345,-0.029 -0.0508,-0.0449 -0.0328,-0.0326 -0.0621,-0.07 -0.0957,-0.10156 -0.0155,-0.0155 -0.0331,-0.0277 -0.0488,-0.043 -0.0315,-0.0312 -0.0595,-0.0674 -0.0918,-0.0977 -0.0148,-0.0148 -0.0319,-0.0264 -0.0469,-0.041 -0.0309,-0.0306 -0.0582,-0.066 -0.0898,-0.0957 -0.0145,-0.0145 -0.0303,-0.0267 -0.0449,-0.041 -0.0293,-0.0289 -0.056,-0.0617 -0.0859,-0.0898 -0.0119,-0.0119 -0.0251,-0.0215 -0.0371,-0.0332 -0.0303,-0.0299 -0.0569,-0.0647 -0.0879,-0.0937 -0.0168,-0.0168 -0.0357,-0.0304 -0.0527,-0.0469 -0.0242,-0.0237 -0.0457,-0.0511 -0.0703,-0.0742 -0.0136,-0.0136 -0.0293,-0.0237 -0.043,-0.0371 -0.0252,-0.0247 -0.0466,-0.054 -0.0723,-0.0781 -0.0125,-0.0125 -0.0264,-0.0228 -0.0391,-0.0352 -0.0249,-0.0244 -0.0469,-0.0524 -0.0723,-0.0762 -0.0119,-0.0119 -0.0251,-0.0215 -0.0371,-0.0332 -0.0242,-0.0237 -0.0457,-0.0511 -0.0703,-0.0742 -0.0112,-0.0112 -0.0238,-0.0202 -0.0352,-0.0312 -0.0229,-0.0224 -0.0431,-0.0485 -0.0664,-0.0703 -0.0106,-0.0106 -0.0225,-0.0188 -0.0332,-0.0293 -0.0216,-0.0211 -0.0405,-0.0458 -0.0625,-0.0664 -0.01,-0.01 -0.0213,-0.0176 -0.0312,-0.0273 -0.021,-0.0204 -0.0392,-0.0445 -0.0606,-0.0645 -0.01,-0.01 -0.0213,-0.0175 -0.0312,-0.0273 -0.0191,-0.0185 -0.0353,-0.0404 -0.0547,-0.0586 -0.01,-0.01 -0.0197,-0.0179 -0.0293,-0.0273 -0.0181,-0.0175 -0.0344,-0.0375 -0.0527,-0.0547 -0.009,-0.009 -0.0187,-0.0149 -0.0273,-0.0234 -0.0171,-0.0166 -0.0315,-0.0365 -0.0488,-0.0527 -0.009,-0.009 -0.0187,-0.015 -0.0273,-0.0234 -0.0158,-0.0153 -0.0289,-0.0338 -0.0449,-0.0488 -0.008,-0.008 -0.0158,-0.014 -0.0234,-0.0215 -0.0148,-0.0143 -0.028,-0.0308 -0.043,-0.0449 -0.007,-0.007 -0.0145,-0.0127 -0.0215,-0.0195 -0.0142,-0.0136 -0.0267,-0.0295 -0.041,-0.043 -0.006,-0.006 -0.0132,-0.0114 -0.0195,-0.0176 -0.0129,-0.0124 -0.0241,-0.0269 -0.0371,-0.0391 -0.006,-0.006 -0.012,-0.0101 -0.0176,-0.0156 -0.0122,-0.0117 -0.0228,-0.0255 -0.0351,-0.0371 -0.005,-0.005 -0.0107,-0.009 -0.0156,-0.0137 -0.0109,-0.0104 -0.0203,-0.0229 -0.0312,-0.0332 -0.005,-0.005 -0.0106,-0.009 -0.0156,-0.0137 -0.009,-0.009 -0.0164,-0.0189 -0.0254,-0.0273 -0.004,-0.004 -0.009,-0.007 -0.0137,-0.0117 -0.008,-0.008 -0.0151,-0.0176 -0.0234,-0.0254 -0.004,-0.004 -0.008,-0.006 -0.0117,-0.01 -0.008,-0.007 -0.0138,-0.0163 -0.0215,-0.0234 -0.003,-0.003 -0.007,-0.005 -0.01,-0.008 -0.006,-0.006 -0.0112,-0.0136 -0.0176,-0.0195 -0.003,-0.003 -0.005,-0.005 -0.008,-0.008 -0.005,-0.004 -0.009,-0.009 -0.0137,-0.0137 0,0 -0.002,-0.002 -0.002,-0.002 -0.005,-0.005 -0.0103,-0.0106 -0.0156,-0.0156 -0.002,-0.002 -0.004,-0.004 -0.006,-0.006 -0.002,-0.002 -0.004,-0.006 -0.006,-0.008 -0.002,-0.002 -0.005,-0.004 -0.008,-0.006 -0.001,-9.4e-4 -9.5e-4,-0.003 -0.002,-0.004 -0.0722,-0.0722 -0.15266,-0.13252 -0.22851,-0.19922 -0.0704,-0.0616 -0.13735,-0.12868 -0.21094,-0.18555 -0.004,-0.003 -0.006,-0.007 -0.01,-0.01 -0.31252,-0.24151 -0.6542,-0.43925 -1.02343,-0.59571 -7.6e-4,-3.2e-4 -0.001,-0.002 -0.002,-0.002 -0.18432,-0.078 -0.37576,-0.14437 -0.57421,-0.20117 -8.2e-4,-2.3e-4 -0.001,-0.002 -0.002,-0.002 -0.797285,-0.2278 -1.651311,-0.3418 -2.562498,-0.3418 z"
       id="path4341"
       inkscape:connector-curvature="0"
       clip-path="url(#clipPath5229)" />
  </g>
</svg>
